<?xml version="1.0" encoding="UTF-8"?>
<svg xmlns="http://www.w3.org/2000/svg"
  xmlns:xlink="http://www.w3.org/1999/xlink" viewBox="0 0 676 153">
  <defs>
    <style>
      .gradient {
        fill: url(#linear-gradient);
      }

      #bg rect {
        fill: #fff79b;
      }

      .fg-fill {
        fill: #000a68;
      }

      #name {
        filter: url("#liquify");
      }

      .chrom {
        filter: url("#chrom");
      }

      #plus {
        transform-box: fill-box;
        transform-origin: center;
      }
    </style>

    <linearGradient id="linear-gradient" x1="0" y1="76.5" x2="676" y2="76.5" gradientUnits="userSpaceOnUse">
      <stop offset="0" stop-color="#ffff9e"/>
      <stop offset=".15" stop-color="#f3ef96"/>
      <stop offset=".35" stop-color="#e9e190"/>
      <stop offset=".53" stop-color="#e6dd8e"/>
      <stop offset=".81" stop-color="#d9bc74"/>
      <stop offset=".99" stop-color="#d3ab67"/>
    </linearGradient>

    <filter id="liquify">
      <feTurbulence baseFrequency="0.015" numOctaves="2" seed="0.4" type="fractalNoise" result="liquified"></feTurbulence>
      <feDisplacementMap scale="51" xChannelSelector="R" yChannelSelector="R" in="SourceGraphic" in2="liquified">
        <animate attributeName="scale" values="0;20;50;80" dur="5s" repeatCount="1" restart="never"/>
      </feDisplacementMap>
    </filter>

    <filter id="chrom" x="-20%" y="-20%" width="140%" height="140%" filterUnits="objectBoundingBox" primitiveUnits="userSpaceOnUse" color-interpolation-filters="linearRGB">
      <feOffset dx="2" dy="0" x="0%" y="0%" width="100%" height="100%" in="colormatrix" result="offset"/>
      <feOffset dx="-2" dy="0" x="0%" y="0%" width="100%" height="100%" in="SourceGraphic" result="offset1"/>
      <feColorMatrix type="matrix" values="
      1 1 1 0 0.7
      1 1 1 0 0
      1 1 1 0 0
      0 0 0 1 0" x="0%" y="0%" width="100%" height="100%" in="offset" result="colormatrix1"/>
      <feColorMatrix type="matrix" values="
      1 1 1 0 0
      1 1 1 0 0.7
      0 0 1 0 0.7
      0 0 0 1 0" x="0%" y="0%" width="100%" height="100%" in="offset1" result="colormatrix3"/>
      <feMerge x="0%" y="0%" width="100%" height="100%" result="merge">
        <feMergeNode in="offset"/>
        <feMergeNode in="colormatrix1"/>
        <feMergeNode in="offset1"/>
        <feMergeNode in="colormatrix3"/>
      </feMerge>
      <!-- <feBlend in="merge" in2="BackgroundImage" mode="overlay" result="blendedMerge" /> -->
      <feComposite in="SourceGraphic" in2="blendedMerge" operator="over" x="0%" y="0%" width="100%" height="100%" result="composite"/>
    </filter>
  </defs>
  <g id="bg" data-name="bg">
    <rect width="676" height="153" rx="13" ry="13"/>
  </g>
  <g id="logo">
    <g id="nums">
      <path class="fg-fill" d="m132.35,144.38c-.26,0-.48.04-.59.1l-.09-.06.05-1.12c.4.02,2.54.14,1.74-.68-.27.08-1.84.04-2.15.05-.44-.12-.21,2.05-.31,2.22,0,.1.35.35.43.28,2.45-1.21,1.77,2.91-.48,1.7-.72.45.18.84.82.76,2.47.19,3.04-3.26.58-3.25Z"/>
      <path class="fg-fill" d="m137.26,144.89v-.12c1.21-.62.49-2.29-.82-2.13-.97-.02-1.87,1-1.02,1.23.2,0,.39-.08.41-.35.77-1.4,1.8,1.14.45,1.12-.55-.15-.59.62-.02.48,1.29-.08,1.14,2.11-.13,1.93-.53.12-1.46-.75-1.25.21,1.68,1.44,4.78-1.17,2.38-2.37Z"/>
      <path class="fg-fill" d="m144.7,142.63c-2.46-.08-1.62,4.42.64,2.85l.1.06c.05,1.82-2.33,1.25-1.85,2.17,2.82.44,4.06-4.91,1.12-5.07Zm.63,2.27c-2.39,1.67-.91-4.02.09-.76,0,.16,0,.53-.09.76Z"/>
      <path class="fg-fill" d="m148.94,142.63c-2.19-.2-2.55,5-.14,5,2.41.27,2.43-5.23.14-5Zm-.08,4.45c-1.12.15-1.1-4.11.04-3.9,1.18-.29,1.09,4.16-.04,3.9Z"/>
      <path class="fg-fill" d="m158.48,142.68c-.56,0-1.97,0-2.48-.02-.83,1.05,1.28.55,1.88.62l.05.1c-.3.79-3.37,5.05-1.05,4.13.06-1.63,2.12-3.55,1.6-4.82Z"/>
      <path class="fg-fill" d="m162.11,145.03v-.1c2.94-3.06-4.41-2.81-1.59.05v.11c-1.35.63-.88,2.66.82,2.56,1.61.12,2.27-2.04.77-2.61Zm-.71-1.87c1.07-.07.68,1.41.09,1.53-1.02-.27-1.25-1.46-.09-1.53Zm-.08,3.94c-1.04.07-1.21-1.4-.23-1.76,1.18.24,1.52,1.68.23,1.76Z"/>
      <path class="fg-fill" d="m170.4,144.89v-.12c1.21-.62.49-2.29-.82-2.13-.98-.02-1.87,1-1.02,1.23.2,0,.39-.08.42-.35.77-1.4,1.8,1.14.45,1.12-.55-.15-.59.62-.02.48,1.29-.08,1.14,2.11-.13,1.93-.53.12-1.46-.75-1.25.21,1.68,1.44,4.78-1.17,2.38-2.37Z"/>
    </g>
    <g id="bars">
      <rect class="fg-fill" x="12.35" y="142.57" width="1.1" height="4.14"/>
      <rect class="fg-fill" x="14.56" y="142.57" width="1.1" height="4.14"/>
      <rect class="fg-fill" x="16.77" y="142.57" width="1.1" height="4.14"/>
      <rect class="fg-fill" x="18.98" y="142.57" width="4.42" height="4.14"/>
      <rect class="fg-fill" x="25.61" y="142.57" width="2.21" height="4.14"/>
      <rect class="fg-fill" x="30.03" y="142.57" width="1.1" height="4.14"/>
      <rect class="fg-fill" x="34.44" y="142.57" width="2.21" height="4.14"/>
      <rect class="fg-fill" x="37.76" y="142.57" width="1.1" height="4.14"/>
      <rect class="fg-fill" x="39.97" y="142.57" width="3.31" height="4.14"/>
      <rect class="fg-fill" x="44.39" y="142.57" width="2.21" height="4.14"/>
      <rect class="fg-fill" x="47.7" y="142.57" width="1.1" height="4.14"/>
      <rect class="fg-fill" x="49.91" y="142.57" width="4.42" height="4.14"/>
      <rect class="fg-fill" x="56.54" y="142.57" width="1.1" height="4.14"/>
      <rect class="fg-fill" x="59.85" y="142.57" width="2.21" height="4.14"/>
      <rect class="fg-fill" x="63.16" y="142.57" width="1.1" height="4.14"/>
      <rect class="fg-fill" x="65.37" y="142.57" width="1.1" height="4.14"/>
      <rect class="fg-fill" x="67.58" y="142.57" width="1.1" height="4.14"/>
      <rect class="fg-fill" x="70.9" y="142.57" width="3.31" height="4.14"/>
      <rect class="fg-fill" x="75.32" y="142.57" width="1.1" height="4.14"/>
      <rect class="fg-fill" x="77.52" y="142.57" width="1.1" height="4.14"/>
      <rect class="fg-fill" x="83.05" y="142.57" width="3.31" height="4.14"/>
      <rect class="fg-fill" x="87.47" y="142.57" width="1.1" height="4.14"/>
      <rect class="fg-fill" x="90.78" y="142.57" width="1.1" height="4.14"/>
      <rect class="fg-fill" x="96.3" y="142.57" width="1.1" height="4.14"/>
      <rect class="fg-fill" x="98.51" y="142.57" width="2.21" height="4.14"/>
      <rect class="fg-fill" x="101.83" y="142.57" width="2.21" height="4.14"/>
      <rect class="fg-fill" x="106.24" y="142.57" width="1.1" height="4.14"/>
      <rect class="fg-fill" x="110.66" y="142.57" width="1.1" height="4.14"/>
      <rect class="fg-fill" x="113.98" y="142.57" width="1.1" height="4.14"/>
      <rect class="fg-fill" x="116.19" y="142.57" width="1.1" height="4.14"/>
    </g>
    <g id="plus">
      <path class="fg-fill" d="m397.35,127.38l-5.87.05.1-5.84c0-.37-.45-.6-.87-.6-.37,0-.72.2-.72.57l.12,5.87h-5.92c-.37-.05-.57.3-.57.62,0,.35.22.7.65.7l5.89-.05-.05,5.84c0,.42.32.62.67.62.4,0,.82-.25.82-.7l-.12-5.77,5.92.05c.37,0,.57-.3.57-.65s-.22-.72-.62-.72Z"/>
      <animateTransform attributeName="transform" attributeType="XML" type="rotate" from="0" to="360" dur="10s" repeatCount="indefinite" />
    </g>
    <g id="desc">
      <path class="fg-fill" d="m391.14,118.64c1.69,0,3.11-.75,4.15-1.49.32-.25.5-.57.5-1.19v-1.62c0-.22-.05-.47-.67-.47-.57,0-.57.27-.57.52v.87c0,1.42-1.62,2.44-3.26,2.44-3.01,0-4.33-2.64-4.33-5.59,0-3.55,1.69-6.04,4.25-6.04,1.74,0,3.23.22,3.36,3.41.02.45.82.42.87,0l.3-3.36c.02-.47-.1-.77-.55-.77-.32,0-.72.25-1.29.25-.62,0-1.44-.47-2.61-.47-3.16,0-5.72,2.44-5.72,7.33,0,4.18,2.51,6.19,5.57,6.19Z"/>
      <path class="fg-fill" d="m410.67,105.37h-4.05c-.6,0-.55.89,0,.92l.87.1c.7.07.87.77.87,2.64v4.82c0,2.71-1.74,3.6-3.55,3.6-2.09,0-3.28-1.12-3.28-3.16v-7.93h1.34c.72,0,.72-.99-.02-.99h-4.18c-.5,0-.5.99,0,.99h1.54v8.48c0,2.29,1.81,3.8,4.45,3.8,2.24,0,4.62-1.34,4.65-4.5v-5.07c0-1.99.07-2.66.77-2.73h.6c.62-.02.65-.97,0-.97Z"/>
      <path class="fg-fill" d="m424.29,117.4h-.84c-.07,0-.25-.05-.32-.2-.4-.62-1.49-2.73-2.44-3.75-.37-.47-.9-1.02-1.54-1.24v-.22c2.71-.55,3.36-2.19,3.36-3.51,0-2.21-1.99-3.21-4.15-3.13l-2.68.07-2.88-.07c-.57-.02-.52,1.02,0,1.02h1.57v11.04h-1.32c-.6,0-.62.99,0,.99h4.85c.5,0,.57-.99,0-.99h-2.21v-5.17h1.19c2.14,0,3.85,3.33,5.02,5.67.2.4.42.5.87.5h1.54c.6,0,.45-.99,0-.99Zm-6.74-6.12h-1.89v-4.92h2.46c2.04,0,2.98.87,2.98,2.51,0,1.32-.8,2.41-3.55,2.41Z"/>
      <path class="fg-fill" d="m438.14,117.4h-.84c-.07,0-.25-.05-.32-.2-.4-.62-1.49-2.73-2.44-3.75-.37-.47-.89-1.02-1.54-1.24v-.22c2.71-.55,3.36-2.19,3.36-3.51,0-2.21-1.99-3.21-4.15-3.13l-2.68.07-2.88-.07c-.57-.02-.52,1.02,0,1.02h1.57v11.04h-1.32c-.6,0-.62.99,0,.99h4.85c.5,0,.57-.99,0-.99h-2.21v-5.17h1.19c2.14,0,3.85,3.33,5.02,5.67.2.4.42.5.87.5h1.54c.6,0,.45-.99,0-.99Zm-6.74-6.12h-1.89v-4.92h2.46c2.04,0,2.98.87,2.98,2.51,0,1.32-.8,2.41-3.56,2.41Z"/>
      <path class="fg-fill" d="m450.46,117.4h-3.63v-11.04h2.98c.65,0,.7-.99,0-.99h-7.78c-.57,0-.52.99,0,.99h3.48v11.04h-3.08c-.6,0-.62.99,0,.99h8.03c.5,0,.57-.99,0-.99Z"/>
      <path class="fg-fill" d="m460.35,118.64c1.69,0,3.11-.75,4.15-1.49.32-.25.5-.57.5-1.19v-1.62c0-.22-.05-.47-.67-.47-.57,0-.57.27-.57.52v.87c0,1.42-1.62,2.44-3.26,2.44-3.01,0-4.33-2.64-4.33-5.59,0-3.55,1.69-6.04,4.25-6.04,1.74,0,3.23.22,3.36,3.41.02.45.82.42.87,0l.3-3.36c.02-.47-.1-.77-.55-.77-.32,0-.72.25-1.29.25-.62,0-1.44-.47-2.61-.47-3.16,0-5.72,2.44-5.72,7.33,0,4.18,2.51,6.19,5.57,6.19Z"/>
      <path class="fg-fill" d="m469.42,114.84c0,2.29,1.81,3.8,4.45,3.8,2.24,0,4.62-1.34,4.65-4.5v-5.07c0-1.99.07-2.66.77-2.73h.6c.62-.02.65-.97,0-.97h-4.05c-.6,0-.55.89,0,.92l.87.1c.7.07.87.77.87,2.64v4.82c0,2.71-1.74,3.6-3.55,3.6-2.09,0-3.28-1.12-3.28-3.16v-7.93h1.34c.72,0,.72-.99-.02-.99h-4.18c-.5,0-.5.99,0,.99h1.54v8.48Z"/>
      <path class="fg-fill" d="m492.39,118.39c.4,0,.82-.2.85-.67l.12-3.78c.02-.45-.92-.5-.97-.05l-.15,1.94c-.15,1.12-.15,1.57-1.74,1.57h-4.18v-11.04h2.06c.52,0,.62-.99.02-.99h-5.87c-.42,0-.4.99,0,.99h2.46v11.04h-1.94c-.7,0-.67.99,0,.99h9.32Z"/>
      <path class="fg-fill" d="m506.21,114.14v-5.07c0-1.99.07-2.66.77-2.73h.6c.62-.02.65-.97,0-.97h-4.05c-.6,0-.55.89,0,.92l.87.1c.7.07.87.77.87,2.64v4.82c0,2.71-1.74,3.6-3.55,3.6-2.09,0-3.28-1.12-3.28-3.16v-7.93h1.34c.72,0,.72-.99-.02-.99h-4.18c-.5,0-.5.99,0,.99h1.54v8.48c0,2.29,1.81,3.8,4.45,3.8,2.24,0,4.62-1.34,4.65-4.5Z"/>
      <path class="fg-fill" d="m513.09,117.5l-.97-.07c-.62-.05-.85-.32-.85-1.07l.12-8.4.27-.15,3.21,6.61c.02.1.17.2.47.2.15,0,.35,0,.42-.2l3.36-6.54.3.15v9.37h-1.74c-.45,0-.55.99-.05.99h4.23c.5,0,.45-.99-.02-.99h-1.09v-11.04h1.14c.52,0,.6-.99.05-.99h-2.26c-.17,0-.37.27-.47.47l-3.58,6.89h-.27l-3.51-7.11c-.07-.15-.17-.25-.4-.25h-2.31c-.55,0-.55.99-.02.99h1.42l-.25,9.75c-.02,1.24-.37,1.29-.87,1.29h-.3c-.57,0-.57.99,0,.99h3.98c.6,0,.62-.87,0-.9Z"/>
      <path class="fg-fill" d="m549.61,111.68c0-1.91-.67-3.55-2.01-4.7-1.19-1.09-2.91-1.62-4.87-1.62h-4.23c-.47,0-.35.99,0,.99h1.89v11.04h-1.77c-.4,0-.35.99,0,.99h4.47c1.99,0,3.11-.52,4.18-1.29,1.69-1.29,2.34-3.23,2.34-5.42Zm-6.54,5.72h-1.37v-11.04h1.09c3.73,0,5.39,2.64,5.42,5.22.05,4.53-2.69,5.82-5.15,5.82Z"/>
      <path class="fg-fill" d="m563.03,117.85l.05-3.58c0-.42-.95-.5-.97,0l-.05,1.37c-.07,1.44-.65,1.74-2.04,1.77h-4.15v-5.34l2.56.07c.25,0,.25.1.25.2v1.69c0,.52.99.4.99,0v-4.57c0-.35-.95-.35-.97,0v1.59c0,.2-.1.2-.27.2l-2.56.05v-4.92h4c1.57,0,1.81.32,1.81,1.39v1.27c0,.47.95.32.97,0l.2-2.93c.02-.47-.25-.77-.6-.77l-6.81.07-2.98-.07c-.42,0-.4,1.04,0,1.04h2.09v11.04h-1.94c-.55,0-.47,1.07,0,1.04l2.78-.1,6.94.1c.42.02.7-.12.7-.6Z"/>
      <path class="fg-fill" d="m577.47,106.33l.25-.07c.55-.15.55-.89-.1-.89h-3.63c-.7,0-.65.97-.12.99h.89c.85.02.92.47.65,1.29l-3.21,9.1h-.35l-3.58-10.39h1.89c.55,0,.57-.99.05-.99h-4.57c-.5,0-.5.99.02.99h1.22l4.15,11.66c.15.47.35.67.82.67.42,0,.65-.22.8-.65l3.58-10.07c.4-1.14.7-1.49,1.24-1.64Z"/>
      <path class="fg-fill" d="m590.72,117.85l.05-3.58c0-.42-.95-.5-.97,0l-.05,1.37c-.07,1.44-.65,1.74-2.04,1.77h-4.15v-5.34l2.56.07c.25,0,.25.1.25.2v1.69c0,.52.99.4.99,0v-4.57c0-.35-.95-.35-.97,0v1.59c0,.2-.1.2-.27.2l-2.56.05v-4.92h4c1.57,0,1.81.32,1.81,1.39v1.27c0,.47.95.32.97,0l.2-2.93c.02-.47-.25-.77-.6-.77l-6.81.07-2.98-.07c-.42,0-.4,1.04,0,1.04h2.09v11.04h-1.94c-.55,0-.47,1.07,0,1.04l2.78-.1,6.94.1c.42.02.7-.12.7-.6Z"/>
      <path class="fg-fill" d="m604.96,117.72l.12-3.78c.02-.45-.92-.5-.97-.05l-.15,1.94c-.15,1.12-.15,1.57-1.74,1.57h-4.18v-11.04h2.06c.52,0,.62-.99.02-.99h-5.87c-.42,0-.4.99,0,.99h2.46v11.04h-1.94c-.7,0-.67.99,0,.99h9.32c.4,0,.82-.2.85-.67Z"/>
      <path class="fg-fill" d="m613.26,105.12c-3.11,0-5.64,3.23-5.64,7.66s2.69,5.87,5.37,5.87c3.33,0,5.94-2.39,5.94-6.89s-2.83-6.64-5.67-6.64Zm.02,12.58c-3.01,0-4.28-2.26-4.28-5.49s1.89-6.14,4.25-6.14c2.63,0,4.28,2.31,4.28,5.94,0,3.98-2.26,5.69-4.25,5.69Z"/>
      <path class="fg-fill" d="m627.3,105.34l-2.29.05-2.91-.05c-.57-.02-.52,1.02,0,1.02h2.11v11.04h-1.77c-.6,0-.62.99,0,.99h5.52c.5,0,.57-.99,0-.99h-2.44v-4.33h1.54c3.31,0,5.27-2.01,5.27-4.15,0-2.41-2.39-3.65-5.05-3.58Zm-.37,6.84h-1.39v-5.82h1.96c2.26,0,3.46,1.12,3.46,2.91,0,1.59-1.29,2.91-4.03,2.91Z"/>
      <path class="fg-fill" d="m645.17,114.27l-.05,1.37c-.07,1.44-.65,1.74-2.04,1.77h-4.15v-5.34l2.56.07c.25,0,.25.1.25.2v1.69c0,.52.99.4.99,0v-4.57c0-.35-.95-.35-.97,0v1.59c0,.2-.1.2-.27.2l-2.56.05v-4.92h4c1.57,0,1.81.32,1.81,1.39v1.27c0,.47.94.32.97,0l.2-2.93c.02-.47-.25-.77-.6-.77l-6.81.07-2.98-.07c-.42,0-.4,1.04,0,1.04h2.09v11.04h-1.94c-.55,0-.47,1.07,0,1.04l2.78-.1,6.94.1c.42.02.7-.12.7-.6l.05-3.58c0-.42-.94-.5-.97,0Z"/>
      <path class="fg-fill" d="m660.61,117.4h-.84c-.07,0-.25-.05-.32-.2-.4-.62-1.49-2.73-2.44-3.75-.37-.47-.89-1.02-1.54-1.24v-.22c2.71-.55,3.36-2.19,3.36-3.51,0-2.21-1.99-3.21-4.15-3.13l-2.68.07-2.88-.07c-.57-.02-.52,1.02,0,1.02h1.57v11.04h-1.32c-.6,0-.62.99,0,.99h4.85c.5,0,.57-.99,0-.99h-2.21v-5.17h1.19c2.14,0,3.85,3.33,5.02,5.67.2.4.42.5.87.5h1.54c.6,0,.45-.99,0-.99Zm-6.74-6.12h-1.89v-4.92h2.46c2.04,0,2.98.87,2.98,2.51,0,1.32-.8,2.41-3.55,2.41Z"/>
      <path class="fg-fill" d="m413.27,127.8c-3.03-.57-3.8-1.44-3.8-2.71,0-1.47,1.29-2.46,3.33-2.46s2.91.55,2.88,2.73c0,.57.92.52.95.12l.1-3.16c0-.27-.2-.45-.57-.45s-.62.15-.99.15-1.04-.35-2.46-.35c-2.88,0-4.6,1.86-4.6,3.65,0,1.42,1.19,2.86,4.25,3.48,2.76.55,3.68,1.54,3.68,2.96s-1.32,2.49-3.38,2.49c-2.49,0-3.41-.52-3.56-3.08-.02-.5-.99-.4-.99.1,0,.97.05,2.09.05,2.98,0,.67.17.84.62.84.57,0,.82,0,1.42-.12.42,0,1.47.22,2.56.22,2.98,0,4.65-1.74,4.65-3.6s-1.19-3.23-4.13-3.8Z"/>
      <path class="fg-fill" d="m427.56,121.69c-3.11,0-5.64,3.23-5.64,7.66s2.69,5.87,5.37,5.87c3.33,0,5.94-2.39,5.94-6.89s-2.83-6.64-5.67-6.64Zm.02,12.58c-3.01,0-4.28-2.26-4.28-5.49s1.89-6.14,4.25-6.14c2.63,0,4.28,2.31,4.28,5.94,0,3.98-2.26,5.69-4.25,5.69Z"/>
      <path class="fg-fill" d="m447.04,121.88l-6.99.07-2.93-.07c-.42,0-.4,1.04,0,1.04h2.24v11.04h-1.84c-.55,0-.47.99,0,.99h5.87c.42,0,.4-.97-.05-.99h-2.66v-5.35l2.56.07c.25,0,.25.1.25.2v1.77c0,.45.97.45.99,0v-4.72c0-.45-.97-.42-.97,0v1.67c0,.2-.1.2-.27.2l-2.56.05v-4.92h4.05c1.09,0,1.79.35,1.79,1.37v1.47c0,.4.9.42.92,0l.2-3.11c.02-.47-.25-.75-.6-.77Z"/>
      <path class="fg-fill" d="m462.43,121.93h-10.14c-.35,0-.6.3-.6.52l.07,3.75c.02.32.99.37.99,0v-1.52c0-1.27.2-1.84,1.67-1.84h2.24v11.11h-1.99c-.7,0-.67.99,0,.99h5.52c.57,0,.47-.99-.05-.99h-2.16v-11.11h2.34c1.14,0,1.67.4,1.67,1.77v1.42c0,.4.97.47.99,0l.05-3.6c0-.22-.25-.5-.6-.5Z"/>
      <path class="fg-fill" d="m478.78,121.93h-3.83c-.47,0-.47.99.02.99h1.94c.02,3.16-.45,6.91-1.14,9.99h-.4l-2.36-6.29c-.15-.45-.22-.52-.52-.52-.25,0-.37.07-.52.57l-2.29,6.24h-.42c-.65-3.28-1.07-6.56-1.24-9.99h1.77c.47,0,.52-.99-.02-.99h-4.1c-.5,0-.45.99,0,.99h1.04c.32,4.03.75,8.11,1.67,11.69.1.55.37.6.85.6.3,0,.77-.07.87-.55l2.11-6.04h.25l2.31,6.02c.15.45.22.57.7.57.3,0,.75-.07.82-.52.97-3.6,1.52-8.33,1.64-11.76h.82c.52,0,.6-.99.05-.99Z"/>
      <path class="fg-fill" d="m493.37,133.97h-1.14l-4.67-12.03c-.1-.22-.25-.32-.4-.32-.17,0-.35.17-.45.42l-4.15,10.47c-.5,1.19-.72,1.49-1.07,1.54l-.52.1c-.6.1-.45.82.15.82h4.33c.7,0,.57-.82.05-.85l-1.29-.12c-.87-.07-.99-.42-.67-1.24l.82-2.19h5.15l1.27,3.41h-1.39c-.55,0-.57.99-.05.99h4.08c.5,0,.5-.99-.02-.99Zm-8.65-4.33l1.96-5.1c.15-.37.45-.45.62,0l1.86,5.1h-4.45Z"/>
      <path class="fg-fill" d="m507.93,133.97h-.84c-.07,0-.25-.05-.32-.2-.4-.62-1.49-2.73-2.44-3.75-.37-.47-.9-1.02-1.54-1.24v-.22c2.71-.55,3.36-2.19,3.36-3.51,0-2.21-1.99-3.21-4.15-3.13l-2.68.07-2.88-.07c-.57-.02-.52,1.02,0,1.02h1.57v11.04h-1.32c-.6,0-.62.99,0,.99h4.85c.5,0,.57-.99,0-.99h-2.21v-5.17h1.19c2.14,0,3.85,3.33,5.02,5.67.2.4.42.5.87.5h1.54c.6,0,.45-.99,0-.99Zm-6.74-6.12h-1.89v-4.92h2.46c2.04,0,2.98.87,2.98,2.51,0,1.32-.8,2.41-3.56,2.41Z"/>
      <path class="fg-fill" d="m521.25,130.83l-.05,1.37c-.07,1.44-.65,1.74-2.04,1.77h-4.15v-5.35l2.56.07c.25,0,.25.1.25.2v1.69c0,.52.99.4.99,0v-4.57c0-.35-.95-.35-.97,0v1.59c0,.2-.1.2-.27.2l-2.56.05v-4.92h4c1.57,0,1.81.32,1.81,1.39v1.27c0,.47.94.32.97,0l.2-2.93c.02-.47-.25-.77-.6-.77l-6.81.07-2.98-.07c-.42,0-.4,1.04,0,1.04h2.09v11.04h-1.94c-.55,0-.47,1.07,0,1.04l2.78-.1,6.94.1c.42.02.7-.12.7-.6l.05-3.58c0-.42-.94-.5-.97,0Z"/>
      <path class="fg-fill" d="m548.08,130.83l-.05,1.37c-.07,1.44-.65,1.74-2.04,1.77h-4.15v-5.35l2.56.07c.25,0,.25.1.25.2v1.69c0,.52.99.4.99,0v-4.57c0-.35-.95-.35-.97,0v1.59c0,.2-.1.2-.27.2l-2.56.05v-4.92h4c1.57,0,1.81.32,1.81,1.39v1.27c0,.47.94.32.97,0l.2-2.93c.02-.47-.25-.77-.6-.77l-6.81.07-2.98-.07c-.42,0-.4,1.04,0,1.04h2.09v11.04h-1.94c-.55,0-.47,1.07,0,1.04l2.78-.1,6.94.1c.42.02.7-.12.7-.6l.05-3.58c0-.42-.94-.5-.97,0Z"/>
      <path class="fg-fill" d="m567.83,121.93h-4.45c-.35,0-.45.7,0,.75l.72.07c1.49.17,1.42.85,1.47,1.81l.17,7.96-.25.1-7.11-10.44c-.1-.12-.17-.25-.4-.25h-2.64c-.55,0-.55.99-.02.99h1.54l.2,9.77c.02,1.24-.65,1.29-1.04,1.29h-.3c-.47,0-.4.97,0,.97h4.23c.32,0,.35-.87,0-.9l-.99-.07c-.4-.02-.87-.32-.9-1.07l-.27-8.9.22-.15,7.38,10.81c.15.27.45.5.67.5.35,0,.55-.2.55-.5l-.12-10.86c0-.57.37-.9.85-.9h.5c.35,0,.45-.99,0-.99Z"/>
      <path class="fg-fill" d="m583.29,129.19h-4.13c-.42,0-.4.89,0,.89h1.64v3.03c-.55.57-1.59,1.14-2.88,1.14-2.86,0-4.13-2.64-4.13-5.87s1.67-5.77,4.3-5.77c1.52,0,3.23.37,3.23,3.06,0,.7.87.5.9.07.05-1.09.12-1.94.25-3.03.02-.47-.25-.75-.6-.77-.35,0-.52.17-1.12.17-.77,0-1.34-.45-2.88-.45-2.88,0-5.47,2.54-5.47,7.26,0,4.15,2.41,6.27,5.25,6.27,1.14,0,2.04-.27,2.76-.7.37-.22.62-.35,1.04-.35.4,0,.67-.27.67-.85v-3.23h1.19c.37,0,.42-.89-.02-.89Z"/>
      <path class="fg-fill" d="m595.89,133.97h-3.63v-11.04h2.98c.65,0,.7-.99,0-.99h-7.78c-.57,0-.52.99,0,.99h3.48v11.04h-3.08c-.6,0-.62.99,0,.99h8.03c.5,0,.57-.99,0-.99Z"/>
      <path class="fg-fill" d="m612.56,121.93h-4.45c-.35,0-.45.7,0,.75l.72.07c1.49.17,1.42.85,1.47,1.81l.17,7.96-.25.1-7.11-10.44c-.1-.12-.17-.25-.4-.25h-2.64c-.55,0-.55.99-.02.99h1.54l.2,9.77c.02,1.24-.65,1.29-1.04,1.29h-.3c-.47,0-.4.97,0,.97h4.23c.32,0,.35-.87,0-.9l-.99-.07c-.4-.02-.87-.32-.9-1.07l-.27-8.9.22-.15,7.38,10.81c.15.27.45.5.67.5.35,0,.55-.2.55-.5l-.12-10.86c0-.57.37-.9.85-.9h.5c.35,0,.45-.99,0-.99Z"/>
      <path class="fg-fill" d="m626.64,130.83l-.05,1.37c-.07,1.44-.65,1.74-2.04,1.77h-4.15v-5.35l2.56.07c.25,0,.25.1.25.2v1.69c0,.52.99.4.99,0v-4.57c0-.35-.95-.35-.97,0v1.59c0,.2-.1.2-.27.2l-2.56.05v-4.92h4c1.57,0,1.81.32,1.81,1.39v1.27c0,.47.94.32.97,0l.2-2.93c.02-.47-.25-.77-.6-.77l-6.81.07-2.98-.07c-.42,0-.4,1.04,0,1.04h2.09v11.04h-1.94c-.55,0-.47,1.07,0,1.04l2.78-.1,6.94.1c.42.02.7-.12.7-.6l.05-3.58c0-.42-.94-.5-.97,0Z"/>
      <path class="fg-fill" d="m642.55,130.83l-.05,1.37c-.07,1.44-.65,1.74-2.04,1.77h-4.15v-5.35l2.56.07c.25,0,.25.1.25.2v1.69c0,.52.99.4.99,0v-4.57c0-.35-.95-.35-.97,0v1.59c0,.2-.1.2-.27.2l-2.56.05v-4.92h4c1.57,0,1.81.32,1.81,1.39v1.27c0,.47.94.32.97,0l.2-2.93c.02-.47-.25-.77-.6-.77l-6.81.07-2.98-.07c-.42,0-.4,1.04,0,1.04h2.09v11.04h-1.94c-.55,0-.47,1.07,0,1.04l2.78-.1,6.94.1c.42.02.7-.12.7-.6l.05-3.58c0-.42-.94-.5-.97,0Z"/>
      <path class="fg-fill" d="m661.05,133.97h-.84c-.07,0-.25-.05-.32-.2-.4-.62-1.49-2.73-2.44-3.75-.37-.47-.9-1.02-1.54-1.24v-.22c2.71-.55,3.36-2.19,3.36-3.51,0-2.21-1.99-3.21-4.15-3.13l-2.68.07-2.88-.07c-.57-.02-.52,1.02,0,1.02h1.57v11.04h-1.32c-.6,0-.62.99,0,.99h4.85c.5,0,.57-.99,0-.99h-2.21v-5.17h1.19c2.14,0,3.85,3.33,5.02,5.67.2.4.42.5.87.5h1.54c.6,0,.45-.99,0-.99Zm-6.74-6.12h-1.89v-4.92h2.46c2.04,0,2.98.87,2.98,2.51,0,1.32-.8,2.41-3.55,2.41Z"/>
    </g>
    <g id="name">
      <path class="fg-fill chrom" d="m48.19,132.43c-1.15-.61-1.96-1.56-1.96-5.48v-12.31c0-9.67-7.04-13.26-15.9-13.26-5.55,0-12.79,1.62-16.03,3.18l2.5,9.4c3.18-1.42,6.97-2.37,10.28-2.37,2.77,0,4.67.68,4.67,2.71v1.22c-1.76-.34-2.84-.54-5.14-.54-7.71,0-14.61,3.25-14.61,10.49s5.28,10.15,11.3,10.15c4.8,0,8.12-1.42,10.35-3.38h.47c.14,1.08,1.62,3.11,2.98,3.59l11.09-2.71v-.68Zm-16.44-7.44c-.74,1.01-1.76,1.56-3.04,1.56-1.56,0-2.77-.95-2.77-2.77,0-2.03,1.49-2.77,3.11-2.77.95,0,1.69.2,2.71.47v3.52Z"/>
      <path class="fg-fill" d="m68,113.27c-2.66-.63-3.32-1.09-3.49-1.27.21-.1.75-.25,1.82-.25,3.57,0,8.28,1.59,10.41,2.59l.55.26,2.62-10.24-.35-.18c-4.42-2.32-8.78-3.3-14.57-3.3-9.16,0-15.32,4.36-15.32,10.85,0,4.43,1.6,8.92,13.24,11.72,1.46.33,3.67.83,3.68,1.38-.07.11-.66.41-2.42.41-3,0-8.43-1.2-11.74-2.98l-.57-.31-2.83,11.34.42.16c4.75,1.77,10.14,2.67,16.01,2.67,3.51,0,14.98-.8,14.98-11.05,0-4.52-1.5-9.07-12.43-11.79Zm-2.55,21.84c-5.58,0-10.7-.83-15.24-2.45l2.31-9.24c3.47,1.69,8.69,2.81,11.64,2.81,2.29,0,3.41-.45,3.41-1.38,0-1.31-1.69-1.76-4.44-2.38-10.35-2.49-12.47-6.1-12.47-10.74,0-6.81,7.19-9.85,14.32-9.85,5.47,0,9.61.9,13.76,3.01l-2.12,8.31c-2.4-1.03-6.83-2.44-10.28-2.44-1.31,0-2.87.2-2.87,1.18,0,.78.73,1.47,4.3,2.31,9.68,2.4,11.66,6.06,11.66,10.81,0,9.33-10.7,10.05-13.98,10.05Z"/>
      <path class="fg-fill" d="m108.75,100.88c-4.29,0-7.45,1.94-9.17,3.96v-17.59l-16.56,1.08v46.77h16.56v-20.19c.5-.48,1.37-.92,2.34-.92s1.66.78,1.66,1.94v19.17h16.56v-22.96c0-7.39-5.73-11.26-11.39-11.26Zm10.39,33.22h-14.56v-18.17c0-1.7-1.12-2.94-2.66-2.94-1.46,0-2.65.75-3.22,1.39l-.13.14v19.58h-14.56v-44.83l14.56-.95v17.96h1.17l.15-.21c1.42-2.02,4.49-4.18,8.86-4.18,5,0,10.39,3.21,10.39,10.26v21.96Z"/>
      <path class="fg-fill" d="m123.74,135.09h16.56v-47.85l-16.56,1.08v46.77Zm1-45.83l14.56-.95v45.78h-14.56v-44.83Z"/>
      <path class="fg-fill" d="m161.72,110.69c-2.02,0-4.2,1.87-4.36,5.01l-.03.52h7.6l.05-.44c.19-1.64-.18-3.07-1.03-4.03-.6-.67-1.42-1.06-2.24-1.06Zm-3.31,4.53c.31-2.22,1.86-3.53,3.31-3.53.54,0,1.08.27,1.49.73.59.66.87,1.64.82,2.81h-5.62Z"/>
      <path class="fg-fill" d="m161.52,100.88c-10.54,0-18.5,8.33-18.5,19.38,0,9.93,6.56,15.86,17.55,15.86,4.05,0,10.19-.7,14.16-2.69l.23-.12,1.47-10.3h-1.05l-.12.07c-1.8,1.08-6.51,1.96-10.5,1.96s-6.32-1.16-6.58-3.53h18.47l.13-.3c.88-1.95,1.06-4.21,1.06-5.75,0-7.06-5.72-14.57-16.33-14.57Zm14.49,19.62h-18.84v.5c0,3.34,2.56,5.03,7.6,5.03,3.42,0,8.08-.68,10.49-1.82l-1.2,8.43c-3.82,1.82-9.62,2.47-13.48,2.47-14.94,0-16.55-10.39-16.55-14.86,0-10.48,7.52-18.38,17.5-18.38s15.33,6.99,15.33,13.57c0,1.12-.11,3.23-.85,5.05Z"/>
      <path class="fg-fill chrom" d="m197.7,113.39l-.74,3.73-.79-3.75-2.66-11.48h-16.55l11.24,28.95c-1.42,6.04-4.54,10.54-9.27,13.4l-.27.16.49,4.75,14.71-1.82c2.98-.36,5.83-3.63,7.1-6.66l16.05-38.78h-16.57l-2.73,11.5Zm17.81-10.5l-15.48,37.4c-1.13,2.7-3.72,5.74-6.3,6.06l-13.7,1.7-.32-3.1c4.86-3.03,8.06-7.75,9.5-14.02l.03-.15-10.82-27.88h14.3l2.48,10.7,1.17,5.54h1.22l1.09-5.53,2.55-10.71h14.28Z"/>
      <polygon class="fg-fill chrom" points="238.24 91.3 222.68 92.99 222.68 101.78 217.61 104.56 217.61 113.49 222.68 113.49 222.68 134.59 238.24 134.59 238.24 113.49 243.11 113.49 243.11 102.39 238.24 102.39 238.24 91.3"/>
      <path class="fg-fill chrom" d="m259.62,108.95h-.68l-1.01-6.56h-12.04v32.2h15.56v-7.71c0-4.47,1.69-9.27,8.12-10.35h2.3v-14.48h-1.62c-3.25,0-8.32,2.03-10.62,6.9Z"/>
      <path class="fg-fill" d="m275.29,135.09h16.56v-33.57l-16.56,1.08v32.49Zm1-31.56l14.56-.95v31.51h-14.56v-30.56Z"/>
      <path class="fg-fill" d="m283.57,87.35c-6.56,0-8.89,3.51-8.89,6.52,0,1.47.64,6.25,8.89,6.25,6.14,0,8.89-3.14,8.89-6.25s-2.33-6.52-8.89-6.52Zm0,11.77c-4.94,0-7.89-1.96-7.89-5.25,0-2.67,2.07-5.52,7.89-5.52,4.79,0,7.89,2.17,7.89,5.52,0,2.61-2.44,5.25-7.89,5.25Z"/>
      <path class="fg-fill chrom" d="m321.39,101.38c-4.6,0-8.39,2.16-10.35,5.48h-.41l-.88-4.47h-13.8v32.2h15.56v-19.89c.47-.54,1.76-1.22,2.84-1.22,1.28,0,2.16.88,2.16,2.71v18.4h15.56v-22.32c0-7.44-5.68-10.89-10.69-10.89Z"/>
      <path class="fg-fill chrom" d="m361.78,101.38c-4.67,0-7.85,2.37-9.27,4.4h-.41v-18l-15.56,1.01v45.8h15.56v-19.89c.54-.61,1.62-1.22,2.84-1.22s2.16.95,2.16,2.44v18.67h15.56v-22.46c0-7.44-5.82-10.76-10.89-10.76Z"/>
      <animateTransform attributeName="transform" attributeType="XML" type="skewX" values="0;-10;-30" dur="5s" repeatCount="1" restart="never" fill="freeze" additive="sum" />
      <animateTransform attributeName="transform" attributeType="XML" type="translate" values="0;25;75" dur="5s" repeatCount="1" restart="never" fill="freeze" additive="sum" />
      <!-- <animateTransform attributeName="transform" attributeType="XML" type="translateX" from="0" to="130" dur="5s" repeatCount="1" /> -->
    </g>
  </g>
</svg>
