<?xml version="1.0" encoding="UTF-8"?>
<svg id="Layer_1" data-name="Layer 1" xmlns="http://www.w3.org/2000/svg" viewBox="0 0 649 68.16">
  <defs>
    <filter id="liquify">
      <feTurbulence baseFrequency="0.012" result="liquified" type="fractalNoise"></feTurbulence>
			<feDisplacementMap id="liquifyDisplacement" in="SourceGraphic" in2="liquified" scale="20" xChannelSelector="R" yChannelSelector="R">
        <animate attributeName="scale" values="-10;0;20;0;-5" dur="5s" repeatCount="indefinite"/>
      </feDisplacementMap>
    </filter>
    <filter id="chrom" x="-20%" y="-20%" width="140%" height="140%" filterUnits="objectBoundingBox" primitiveUnits="userSpaceOnUse" color-interpolation-filters="linearRGB">
      <feOffset dx="2" dy="0" x="0%" y="0%" width="100%" height="100%" in="colormatrix" result="offset"/>
      <feOffset dx="-2" dy="0" x="0%" y="0%" width="100%" height="100%" in="SourceGraphic" result="offset1"/>
      <feColorMatrix type="matrix" values="1 0 0 0 1
    0 1 0 0 0
    0 0 1 0 0
    0 0 0 1 0" x="0%" y="0%" width="100%" height="100%" in="offset" result="colormatrix1"/>
      <feColorMatrix type="matrix" values="1 0 0 0 0
    0 1 0 0 1
    0 0 1 0 1
    0 0 0 1 0" x="0%" y="0%" width="100%" height="100%" in="offset1" result="colormatrix3"/>
      <feMerge x="0%" y="0%" width="100%" height="100%" result="merge">
            <feMergeNode in="offset"/>
        <feMergeNode in="colormatrix1"/>
        <feMergeNode in="offset1"/>
        <feMergeNode in="colormatrix3"/>
        </feMerge>
      <feComposite in="SourceGraphic" in2="merge" operator="over" x="0%" y="0%" width="100%" height="100%" result="composite"/>
    </filter>

    <style>
      [data-color-mode] {
        --color-fg: #000;
      }
      [data-color-mode="light"] {
        --color-fg: #fff;
      }
      .cls-1 {
        fill: none;
        stroke: var(--color-fg, #000);
        stroke-miterlimit: 10;
      }
      .chromatic {
        filter: url("/#chrom");
        -webkit-filter: url("#chrom");
      }
      .solid {
        fill: var(--color-fg, #000);
      }
      .solid path {
        fill: inherit;
      }
      #name {
        filter: url("/#liquify");
        -webkit-filter: url("#liquify");
      }
    </style>
  </defs>
  <g id="name">
    <path class="solid chromatic" d="m36.19,52.1l-11.09,2.71c-1.35-.47-2.84-2.5-2.98-3.59h-.47c-2.23,1.96-5.55,3.38-10.35,3.38-6.02,0-11.3-3.04-11.3-10.15s6.9-10.49,14.61-10.49c2.3,0,3.38.2,5.14.54v-1.22c0-2.03-1.89-2.71-4.67-2.71-3.32,0-7.1.95-10.28,2.37l-2.5-9.4c3.25-1.56,10.49-3.18,16.03-3.18,8.86,0,15.9,3.59,15.9,13.26v12.31c0,3.92.81,4.87,1.96,5.48v.68Zm-16.44-11.64c-1.01-.27-1.76-.47-2.71-.47-1.62,0-3.11.74-3.11,2.77,0,1.83,1.22,2.77,2.77,2.77,1.29,0,2.3-.54,3.04-1.56v-3.52Z"/>
    <path class="cls-1" d="m64.95,32.89c-2.3-1.08-7.04-2.64-10.62-2.64-1.42,0-2.37.27-2.37.68s.47,1.01,3.92,1.83c10.08,2.5,12.04,6.43,12.04,11.3,0,8.25-7.92,10.55-14.48,10.55s-11.84-1.15-15.83-2.64l2.57-10.28c3.38,1.83,8.93,3.04,11.97,3.04,1.42,0,2.91-.2,2.91-.88,0-.88-1.35-1.29-4.06-1.89-10.69-2.57-12.85-6.43-12.85-11.23,0-6.77,6.7-10.35,14.82-10.35,5.75,0,10.08,1.01,14.34,3.25l-2.37,9.27Z"/>
    <path class="cls-1" d="m87.48,24.77c1.42-2.03,4.6-4.4,9.27-4.4,5.07,0,10.89,3.32,10.89,10.76v22.46h-15.56v-18.67c0-1.49-.95-2.44-2.16-2.44s-2.3.61-2.84,1.22v19.89h-15.56V7.79l15.56-1.01v18h.41Z"/>
    <path class="cls-1" d="m127.8,6.78v46.81h-15.56V7.79l15.56-1.01Z"/>
    <path class="cls-1" d="m145.66,40c0,3.32,2.84,4.53,7.1,4.53,3.79,0,8.73-.81,10.76-2.03h.34l-1.35,9.47c-3.92,1.96-9.94,2.64-13.94,2.64-9.4,0-17.05-4.53-17.05-15.36s8.05-18.87,17.99-18.87,15.83,6.97,15.83,14.07c0,1.29-.14,3.59-1.01,5.55h-18.67Zm6.83-5.28c.34-2.98-1.29-4.53-2.77-4.53-1.83,0-3.72,1.76-3.86,4.53h6.63Z"/>
    <path class="cls-1" d="m188.49,59.48c-1.22,2.91-3.92,6.02-6.7,6.36l-14.21,1.76-.41-3.92c3.92-2.37,7.85-6.49,9.54-13.87l-11.03-28.41h15.42l2.57,11.1,1.08,5.14h.41l1.01-5.14,2.64-11.1h15.42l-15.76,38.09Z"/>
    <path class="solid chromatic" d="m226.24,10.3v11.09h4.87v11.1h-4.87v21.11h-15.56v-21.11h-5.07v-8.93l5.07-2.77v-8.79l15.56-1.69Z"/>
    <path class="solid chromatic" d="m259.86,21.05v14.48h-2.3c-6.43,1.08-8.12,5.89-8.12,10.35v7.71h-15.56V21.39h12.04l1.01,6.56h.68c2.3-4.87,7.37-6.9,10.62-6.9h1.62Z"/>
    <path class="cls-1" d="m271.57,6.85c5.75,0,8.39,2.84,8.39,6.02s-2.77,5.75-8.39,5.75c-6.09,0-8.39-2.77-8.39-5.75,0-3.18,2.57-6.02,8.39-6.02Zm-7.78,15.22l15.56-1.01v32.54h-15.56v-31.53Z"/>
    <path class="solid chromatic" d="m299.04,25.86c1.96-3.32,5.75-5.48,10.35-5.48,5.01,0,10.69,3.45,10.69,10.89v22.32h-15.56v-18.4c0-1.83-.88-2.71-2.16-2.71-1.08,0-2.37.68-2.84,1.22v19.89h-15.56V21.39h13.8l.88,4.47h.41Z"/>
    <path class="solid chromatic" d="m340.51,24.77c1.42-2.03,4.6-4.4,9.27-4.4,5.07,0,10.89,3.32,10.89,10.76v22.46h-15.56v-18.67c0-1.49-.95-2.44-2.16-2.44s-2.3.61-2.84,1.22v19.89h-15.56V7.79l15.56-1.01v18h.41Z"/>
  </g>
  <g id="barcode" class="solid">
    <path d="m32.39,65.72h2.21v-4.14h-2.21v4.14Zm-4.42,0h3.31v-4.14h-3.31v4.14Zm7.73,0h1.1v-4.14h-1.1v4.14Zm12.15,0h2.21v-4.14h-2.21v4.14Zm-9.94,0h4.42v-4.14h-4.42v4.14Zm13.26,0h1.1v-4.14h-1.1v4.14Zm-6.63,0h1.1v-4.14h-1.1v4.14Zm-44.18,0h1.1v-4.14H.35v4.14Zm6.63,0h4.42v-4.14h-4.42v4.14Zm-2.21,0h1.1v-4.14h-1.1v4.14Zm-2.21,0h1.1v-4.14h-1.1v4.14Zm19.88,0h2.21v-4.14h-2.21v4.14Zm-8.84,0h2.21v-4.14h-2.21v4.14Zm12.15,0h1.1v-4.14h-1.1v4.14Zm-7.73,0h1.1v-4.14h-1.1v4.14Zm57.44,0h1.1v-4.14h-1.1v4.14Zm14.36,0h2.21v-4.14h-2.21v4.14Zm4.42,0h1.1v-4.14h-1.1v4.14Zm-7.73,0h2.21v-4.14h-2.21v4.14Zm17.67-4.14v4.14h1.1v-4.14h-1.1Zm-5.52,4.14h1.1v-4.14h-1.1v4.14Zm-14.36,0h1.1v-4.14h-1.1v4.14Zm-30.93,0h1.1v-4.14h-1.1v4.14Zm48.6,0h1.1v-4.14h-1.1v4.14Zm-38.66,0h1.1v-4.14h-1.1v4.14Zm-4.42,0h3.31v-4.14h-3.31v4.14Zm-3.31,0h1.1v-4.14h-1.1v4.14Zm15.46,0h3.31v-4.14h-3.31v4.14Zm-5.52,0h1.1v-4.14h-1.1v4.14Zm13.26,0h1.1v-4.14h-1.1v4.14Z"/>
  </g>
  <g id="subtitle" class="solid">
    <path d="m379.29,24.12c1.17,0,1.99.47,2.61.47.57,0,.97-.25,1.29-.25.45,0,.57.3.55.77l-.3,3.36c-.05.42-.84.45-.87,0-.12-3.18-1.62-3.41-3.36-3.41-2.56,0-4.25,2.49-4.25,6.04,0,2.96,1.32,5.59,4.33,5.59,1.64,0,3.26-1.02,3.26-2.44v-.87c0-.25,0-.52.57-.52.62,0,.67.25.67.47v1.62c0,.62-.17.95-.5,1.19-1.04.75-2.46,1.49-4.15,1.49-3.06,0-5.57-2.01-5.57-6.19,0-4.9,2.56-7.33,5.72-7.33Z"/>
    <path d="m398.08,25.33c-.7.07-.77.75-.77,2.73v5.07c-.02,3.16-2.41,4.5-4.65,4.5-2.64,0-4.45-1.52-4.45-3.8v-8.48h-1.54c-.5,0-.5-.99,0-.99h4.18c.75,0,.75.99.02.99h-1.34v7.93c0,2.04,1.19,3.16,3.28,3.16,1.81,0,3.56-.9,3.56-3.6v-4.82c0-1.86-.17-2.56-.87-2.64l-.87-.1c-.55-.02-.6-.92,0-.92h4.05c.65,0,.62.94,0,.97h-.6Z"/>
    <path d="m403.67,31.23v5.17h2.21c.57,0,.5.99,0,.99h-4.85c-.62,0-.6-.99,0-.99h1.32v-11.04h-1.57c-.52,0-.57-1.04,0-1.02l2.88.07,2.68-.07c2.16-.07,4.15.92,4.15,3.13,0,1.32-.65,2.96-3.36,3.51v.22c.65.22,1.17.77,1.54,1.24.94,1.02,2.04,3.13,2.44,3.75.07.15.25.2.32.2h.84c.45,0,.6.99,0,.99h-1.54c-.45,0-.67-.1-.87-.5-1.17-2.34-2.88-5.67-5.02-5.67h-1.19Zm0-.94h1.89c2.76,0,3.56-1.09,3.56-2.41,0-1.64-.94-2.51-2.98-2.51h-2.46v4.92Z"/>
    <path d="m417.51,31.23v5.17h2.21c.57,0,.5.99,0,.99h-4.85c-.62,0-.6-.99,0-.99h1.32v-11.04h-1.57c-.52,0-.57-1.04,0-1.02l2.88.07,2.68-.07c2.16-.07,4.15.92,4.15,3.13,0,1.32-.65,2.96-3.36,3.51v.22c.65.22,1.17.77,1.54,1.24.95,1.02,2.04,3.13,2.44,3.75.07.15.25.2.32.2h.84c.45,0,.6.99,0,.99h-1.54c-.45,0-.67-.1-.87-.5-1.17-2.34-2.88-5.67-5.02-5.67h-1.19Zm0-.94h1.89c2.76,0,3.56-1.09,3.56-2.41,0-1.64-.94-2.51-2.98-2.51h-2.46v4.92Z"/>
    <path d="m434.83,25.36v11.04h3.63c.57,0,.5.99,0,.99h-8.03c-.62,0-.6-.99,0-.99h3.08v-11.04h-3.48c-.52,0-.57-.99,0-.99h7.78c.7,0,.65.99,0,.99h-2.98Z"/>
    <path d="m448.5,24.12c1.17,0,1.99.47,2.61.47.57,0,.97-.25,1.29-.25.45,0,.57.3.55.77l-.3,3.36c-.05.42-.84.45-.87,0-.12-3.18-1.62-3.41-3.36-3.41-2.56,0-4.25,2.49-4.25,6.04,0,2.96,1.32,5.59,4.33,5.59,1.64,0,3.26-1.02,3.26-2.44v-.87c0-.25,0-.52.57-.52.62,0,.67.25.67.47v1.62c0,.62-.17.95-.5,1.19-1.04.75-2.46,1.49-4.15,1.49-3.06,0-5.57-2.01-5.57-6.19,0-4.9,2.56-7.33,5.72-7.33Z"/>
    <path d="m467.29,25.33c-.7.07-.77.75-.77,2.73v5.07c-.02,3.16-2.41,4.5-4.65,4.5-2.64,0-4.45-1.52-4.45-3.8v-8.48h-1.54c-.5,0-.5-.99,0-.99h4.18c.75,0,.75.99.02.99h-1.34v7.93c0,2.04,1.19,3.16,3.28,3.16,1.81,0,3.56-.9,3.56-3.6v-4.82c0-1.86-.17-2.56-.87-2.64l-.87-.1c-.55-.02-.6-.92,0-.92h4.05c.65,0,.62.94,0,.97h-.6Z"/>
    <path d="m476.41,24.37c.6,0,.5.99-.02.99h-2.06v11.04h4.18c1.59,0,1.59-.45,1.74-1.57l.15-1.94c.05-.45.99-.4.97.05l-.12,3.78c-.02.47-.45.67-.85.67h-9.32c-.67,0-.7-.99,0-.99h1.94v-11.04h-2.46c-.4,0-.42-.99,0-.99h5.87Z"/>
    <path d="m494.98,25.33c-.7.07-.77.75-.77,2.73v5.07c-.02,3.16-2.41,4.5-4.65,4.5-2.64,0-4.45-1.52-4.45-3.8v-8.48h-1.54c-.5,0-.5-.99,0-.99h4.18c.75,0,.75.99.02.99h-1.34v7.93c0,2.04,1.19,3.16,3.28,3.16,1.81,0,3.56-.9,3.56-3.6v-4.82c0-1.86-.17-2.56-.87-2.64l-.87-.1c-.55-.02-.6-.92,0-.92h4.05c.65,0,.62.94,0,.97h-.6Z"/>
    <path d="m507.13,26.88l-3.36,6.54c-.07.2-.27.2-.42.2-.3,0-.45-.1-.47-.2l-3.21-6.61-.27.15-.12,8.4c0,.75.22,1.02.85,1.07l.97.07c.62.02.6.9,0,.9h-3.98c-.57,0-.57-.99,0-.99h.3c.5,0,.84-.05.87-1.29l.25-9.75h-1.42c-.52,0-.52-.99.02-.99h2.31c.22,0,.32.1.4.25l3.51,7.11h.27l3.58-6.89c.1-.2.3-.47.47-.47h2.26c.55,0,.47.99-.05.99h-1.14v11.04h1.09c.47,0,.52.99.02.99h-4.23c-.5,0-.4-.99.05-.99h1.74v-9.37l-.3-.15Z"/>
    <path d="m528.39,36.4v-11.04h-1.89c-.35,0-.47-.99,0-.99h4.23c1.96,0,3.68.52,4.87,1.62,1.34,1.14,2.01,2.78,2.01,4.7,0,2.19-.65,4.13-2.34,5.42-1.07.77-2.19,1.29-4.18,1.29h-4.47c-.35,0-.4-.99,0-.99h1.77Zm1.32,0h1.37c2.46,0,5.2-1.29,5.15-5.82-.02-2.59-1.69-5.22-5.42-5.22h-1.09v11.04Z"/>
    <path d="m543.87,31.05v5.35h4.15c1.39-.02,1.96-.32,2.04-1.77l.05-1.37c.02-.5.97-.42.97,0l-.05,3.58c0,.47-.27.62-.7.6l-6.94-.1-2.78.1c-.47.02-.55-1.04,0-1.04h1.94v-11.04h-2.09c-.4,0-.42-1.04,0-1.04l2.98.07,6.81-.07c.35,0,.62.3.6.77l-.2,2.93c-.02.32-.97.47-.97,0v-1.27c0-1.07-.25-1.39-1.81-1.39h-4v4.92l2.56-.05c.17,0,.27,0,.27-.2v-1.59c.02-.35.97-.35.97,0v4.57c0,.4-.99.52-.99,0v-1.69c0-.1,0-.2-.25-.2l-2.56-.07Z"/>
    <path d="m563.41,26.65c.27-.82.2-1.27-.65-1.29h-.89c-.52-.02-.57-.99.12-.99h3.63c.65,0,.65.75.1.89l-.25.07c-.55.15-.85.5-1.24,1.64l-3.58,10.07c-.15.42-.37.65-.8.65-.47,0-.67-.2-.82-.67l-4.15-11.66h-1.22c-.52,0-.52-.99-.02-.99h4.57c.52,0,.5.99-.05.99h-1.89l3.58,10.39h.35l3.21-9.1Z"/>
    <path d="m571.56,31.05v5.35h4.15c1.39-.02,1.96-.32,2.04-1.77l.05-1.37c.02-.5.97-.42.97,0l-.05,3.58c0,.47-.27.62-.7.6l-6.94-.1-2.78.1c-.47.02-.55-1.04,0-1.04h1.94v-11.04h-2.09c-.4,0-.42-1.04,0-1.04l2.98.07,6.81-.07c.35,0,.62.3.6.77l-.2,2.93c-.02.32-.97.47-.97,0v-1.27c0-1.07-.25-1.39-1.81-1.39h-4v4.92l2.56-.05c.17,0,.27,0,.27-.2v-1.59c.02-.35.97-.35.97,0v4.57c0,.4-.99.52-.99,0v-1.69c0-.1,0-.2-.25-.2l-2.56-.07Z"/>
    <path d="m588.14,24.37c.6,0,.5.99-.02.99h-2.06v11.04h4.18c1.59,0,1.59-.45,1.74-1.57l.15-1.94c.05-.45.99-.4.97.05l-.12,3.78c-.02.47-.45.67-.85.67h-9.32c-.67,0-.7-.99,0-.99h1.94v-11.04h-2.46c-.4,0-.42-.99,0-.99h5.87Z"/>
    <path d="m600.99,37.64c-2.68,0-5.37-1.67-5.37-5.87,0-4.43,2.54-7.66,5.64-7.66,2.83,0,5.67,2.19,5.67,6.64s-2.61,6.89-5.94,6.89Zm.27-12.58c-2.36,0-4.25,2.91-4.25,6.14s1.27,5.49,4.28,5.49c1.99,0,4.25-1.72,4.25-5.69,0-3.63-1.64-5.94-4.28-5.94Z"/>
    <path d="m613.54,32.07v4.33h2.44c.57,0,.5.99,0,.99h-5.52c-.62,0-.6-.99,0-.99h1.77v-11.04h-2.11c-.52,0-.57-1.04,0-1.02l2.91.05,2.29-.05c2.66-.07,5.05,1.17,5.05,3.58,0,2.14-1.96,4.15-5.27,4.15h-1.54Zm0-.9h1.39c2.74,0,4.03-1.32,4.03-2.91,0-1.79-1.19-2.91-3.46-2.91h-1.96v5.82Z"/>
    <path d="m626.93,31.05v5.35h4.15c1.39-.02,1.96-.32,2.04-1.77l.05-1.37c.02-.5.97-.42.97,0l-.05,3.58c0,.47-.27.62-.7.6l-6.94-.1-2.78.1c-.47.02-.55-1.04,0-1.04h1.94v-11.04h-2.09c-.4,0-.42-1.04,0-1.04l2.98.07,6.81-.07c.35,0,.62.3.6.77l-.2,2.93c-.02.32-.97.47-.97,0v-1.27c0-1.07-.25-1.39-1.81-1.39h-4v4.92l2.56-.05c.17,0,.27,0,.27-.2v-1.59c.02-.35.97-.35.97,0v4.57c0,.4-.99.52-.99,0v-1.69c0-.1,0-.2-.25-.2l-2.56-.07Z"/>
    <path d="m639.98,31.23v5.17h2.21c.57,0,.5.99,0,.99h-4.85c-.62,0-.6-.99,0-.99h1.32v-11.04h-1.57c-.52,0-.57-1.04,0-1.02l2.88.07,2.68-.07c2.16-.07,4.15.92,4.15,3.13,0,1.32-.65,2.96-3.36,3.51v.22c.65.22,1.17.77,1.54,1.24.95,1.02,2.04,3.13,2.44,3.75.07.15.25.2.32.2h.84c.45,0,.6.99,0,.99h-1.54c-.45,0-.67-.1-.87-.5-1.17-2.34-2.88-5.67-5.02-5.67h-1.19Zm0-.94h1.89c2.76,0,3.56-1.09,3.56-2.41,0-1.64-.94-2.51-2.98-2.51h-2.46v4.92Z"/>
    <path d="m399.09,50.28c0-.5.97-.6.99-.1.15,2.56,1.07,3.08,3.56,3.08,2.06,0,3.38-1.09,3.38-2.49s-.92-2.41-3.68-2.96c-3.06-.62-4.25-2.06-4.25-3.48,0-1.79,1.72-3.65,4.6-3.65,1.42,0,2.09.35,2.46.35s.62-.15.99-.15.57.17.57.45l-.1,3.16c-.02.4-.95.45-.95-.12.02-2.19-.8-2.73-2.88-2.73s-3.33.99-3.33,2.46c0,1.27.77,2.14,3.8,2.71,2.93.57,4.13,2.01,4.13,3.8s-1.67,3.6-4.65,3.6c-1.09,0-2.14-.22-2.56-.22-.6.12-.85.12-1.42.12-.45,0-.62-.17-.62-.84,0-.9-.05-2.01-.05-2.98Z"/>
    <path d="m418.28,54.21c-2.68,0-5.37-1.67-5.37-5.87,0-4.43,2.54-7.66,5.64-7.66,2.83,0,5.67,2.19,5.67,6.64s-2.61,6.89-5.94,6.89Zm.27-12.58c-2.36,0-4.25,2.91-4.25,6.14s1.27,5.49,4.28,5.49c1.99,0,4.25-1.72,4.25-5.69,0-3.63-1.64-5.94-4.28-5.94Z"/>
    <path d="m428.52,53.96c-.47,0-.55-.99,0-.99h1.84v-11.04h-2.24c-.4,0-.42-1.04,0-1.04l2.93.07,6.99-.07c.35.02.62.3.6.77l-.2,3.11c-.02.42-.92.4-.92,0v-1.47c0-1.02-.7-1.37-1.79-1.37h-4.05v4.92l2.56-.05c.17,0,.27,0,.27-.2v-1.67c0-.42.97-.45.97,0v4.72c-.02.45-.99.45-.99,0v-1.77c0-.1,0-.2-.25-.2l-2.56-.07v5.35h2.66c.45.02.47.99.05.99h-5.87Z"/>
    <path d="m445.42,41.85c-1.47,0-1.67.57-1.67,1.84v1.52c0,.37-.97.32-.99,0l-.07-3.75c0-.22.25-.52.6-.52h10.14c.35,0,.6.27.6.5l-.05,3.6c-.02.47-.99.4-.99,0v-1.42c0-1.37-.52-1.77-1.67-1.77h-2.34v11.11h2.16c.52,0,.62.99.05.99h-5.52c-.67,0-.7-.99,0-.99h1.99v-11.11h-2.24Z"/>
    <path d="m465.98,41.93c-.5,0-.5-.99-.02-.99h3.83c.55,0,.47.99-.05.99h-.82c-.12,3.43-.67,8.16-1.64,11.76-.07.45-.52.52-.82.52-.47,0-.55-.12-.7-.57l-2.31-6.02h-.25l-2.11,6.04c-.1.47-.57.55-.87.55-.47,0-.75-.05-.85-.6-.92-3.58-1.34-7.66-1.67-11.69h-1.04c-.45,0-.5-.99,0-.99h4.1c.55,0,.5.99.02.99h-1.77c.17,3.43.6,6.71,1.24,9.99h.42l2.29-6.24c.15-.5.27-.57.52-.57.3,0,.37.07.52.52l2.36,6.29h.4c.7-3.08,1.17-6.84,1.14-9.99h-1.94Z"/>
    <path d="m475.34,49.56l-.82,2.19c-.32.82-.2,1.17.67,1.24l1.29.12c.52.02.65.85-.05.85h-4.33c-.6,0-.75-.72-.15-.82l.52-.1c.35-.05.57-.35,1.07-1.54l4.15-10.47c.1-.25.27-.42.45-.42.15,0,.3.1.4.32l4.67,12.03h1.14c.52,0,.52.99.02.99h-4.08c-.52,0-.5-.99.05-.99h1.39l-1.27-3.41h-5.15Zm.37-.92h4.45l-1.86-5.1c-.17-.45-.47-.37-.62,0l-1.96,5.1Z"/>
    <path d="m490.31,47.8v5.17h2.21c.57,0,.5.99,0,.99h-4.85c-.62,0-.6-.99,0-.99h1.32v-11.04h-1.57c-.52,0-.57-1.04,0-1.02l2.88.07,2.68-.07c2.16-.07,4.15.92,4.15,3.13,0,1.32-.65,2.96-3.36,3.51v.22c.65.22,1.17.77,1.54,1.24.94,1.02,2.04,3.13,2.44,3.75.07.15.25.2.32.2h.84c.45,0,.6.99,0,.99h-1.54c-.45,0-.67-.1-.87-.5-1.17-2.34-2.88-5.67-5.02-5.67h-1.19Zm0-.94h1.89c2.76,0,3.56-1.09,3.56-2.41,0-1.64-.94-2.51-2.98-2.51h-2.46v4.92Z"/>
    <path d="m506.01,47.62v5.35h4.15c1.39-.02,1.96-.32,2.04-1.77l.05-1.37c.02-.5.97-.42.97,0l-.05,3.58c0,.47-.27.62-.7.6l-6.94-.1-2.78.1c-.47.02-.55-1.04,0-1.04h1.94v-11.04h-2.09c-.4,0-.42-1.04,0-1.04l2.98.07,6.81-.07c.35,0,.62.3.6.77l-.2,2.93c-.02.32-.97.47-.97,0v-1.27c0-1.07-.25-1.39-1.81-1.39h-4v4.92l2.56-.05c.17,0,.27,0,.27-.2v-1.59c.02-.35.97-.35.97,0v4.57c0,.4-.99.52-.99,0v-1.69c0-.1,0-.2-.25-.2l-2.56-.07Z"/>
    <path d="m535.84,47.62v5.35h4.15c1.39-.02,1.96-.32,2.04-1.77l.05-1.37c.02-.5.97-.42.97,0l-.05,3.58c0,.47-.27.62-.7.6l-6.94-.1-2.78.1c-.47.02-.55-1.04,0-1.04h1.94v-11.04h-2.09c-.4,0-.42-1.04,0-1.04l2.98.07,6.81-.07c.35,0,.62.3.6.77l-.2,2.93c-.02.32-.97.47-.97,0v-1.27c0-1.07-.25-1.39-1.81-1.39h-4v4.92l2.56-.05c.17,0,.27,0,.27-.2v-1.59c.02-.35.97-.35.97,0v4.57c0,.4-.99.52-.99,0v-1.69c0-.1,0-.2-.25-.2l-2.56-.07Z"/>
    <path d="m557.61,53.69c0,.3-.2.5-.55.5-.22,0-.52-.22-.67-.5l-7.38-10.81-.22.15.27,8.9c.02.75.5,1.04.9,1.07l.99.07c.35.02.32.9,0,.9h-4.23c-.4,0-.47-.97,0-.97h.3c.4,0,1.07-.05,1.04-1.29l-.2-9.77h-1.54c-.52,0-.52-.99.02-.99h2.64c.22,0,.3.12.4.25l7.11,10.44.25-.1-.17-7.96c-.05-.97.02-1.64-1.47-1.81l-.72-.07c-.45-.05-.35-.75,0-.75h4.45c.45,0,.35.99,0,.99h-.5c-.47,0-.85.32-.85.9l.12,10.86Z"/>
    <path d="m572.12,52.32c0,.57-.27.85-.67.85-.42,0-.67.12-1.04.35-.72.42-1.62.7-2.76.7-2.83,0-5.25-2.11-5.25-6.27,0-4.72,2.59-7.26,5.47-7.26,1.54,0,2.11.45,2.88.45.6,0,.77-.17,1.12-.17.35.02.62.3.6.77-.12,1.09-.2,1.94-.25,3.03-.02.42-.9.62-.9-.07,0-2.69-1.72-3.06-3.23-3.06-2.63,0-4.3,2.46-4.3,5.77s1.27,5.87,4.13,5.87c1.29,0,2.34-.57,2.88-1.14v-3.03h-1.64c-.4,0-.42-.89,0-.89h4.13c.45,0,.4.89.02.89h-1.19v3.23Z"/>
    <path d="m583.26,41.93v11.04h3.63c.57,0,.5.99,0,.99h-8.03c-.62,0-.6-.99,0-.99h3.08v-11.04h-3.48c-.52,0-.57-.99,0-.99h7.78c.7,0,.65.99,0,.99h-2.98Z"/>
    <path d="m602.35,53.69c0,.3-.2.5-.55.5-.22,0-.52-.22-.67-.5l-7.38-10.81-.22.15.27,8.9c.02.75.5,1.04.9,1.07l.99.07c.35.02.32.9,0,.9h-4.23c-.4,0-.47-.97,0-.97h.3c.4,0,1.07-.05,1.04-1.29l-.2-9.77h-1.54c-.52,0-.52-.99.02-.99h2.64c.22,0,.3.12.4.25l7.11,10.44.25-.1-.17-7.96c-.05-.97.02-1.64-1.47-1.81l-.72-.07c-.45-.05-.35-.75,0-.75h4.45c.45,0,.35.99,0,.99h-.5c-.47,0-.85.32-.85.9l.12,10.86Z"/>
    <path d="m610.4,47.62v5.35h4.15c1.39-.02,1.96-.32,2.04-1.77l.05-1.37c.02-.5.97-.42.97,0l-.05,3.58c0,.47-.27.62-.7.6l-6.94-.1-2.78.1c-.47.02-.55-1.04,0-1.04h1.94v-11.04h-2.09c-.4,0-.42-1.04,0-1.04l2.98.07,6.81-.07c.35,0,.62.3.6.77l-.2,2.93c-.02.32-.97.47-.97,0v-1.27c0-1.07-.25-1.39-1.81-1.39h-4v4.92l2.56-.05c.17,0,.27,0,.27-.2v-1.59c.02-.35.97-.35.97,0v4.57c0,.4-.99.52-.99,0v-1.69c0-.1,0-.2-.25-.2l-2.56-.07Z"/>
    <path d="m625.31,47.62v5.35h4.15c1.39-.02,1.96-.32,2.04-1.77l.05-1.37c.02-.5.97-.42.97,0l-.05,3.58c0,.47-.27.62-.7.6l-6.94-.1-2.78.1c-.47.02-.55-1.04,0-1.04h1.94v-11.04h-2.09c-.4,0-.42-1.04,0-1.04l2.98.07,6.81-.07c.35,0,.62.3.6.77l-.2,2.93c-.02.32-.97.47-.97,0v-1.27c0-1.07-.25-1.39-1.81-1.39h-4v4.92l2.56-.05c.17,0,.27,0,.27-.2v-1.59c.02-.35.97-.35.97,0v4.57c0,.4-.99.52-.99,0v-1.69c0-.1,0-.2-.25-.2l-2.56-.07Z"/>
    <path d="m639.42,47.8v5.17h2.21c.57,0,.5.99,0,.99h-4.85c-.62,0-.6-.99,0-.99h1.32v-11.04h-1.57c-.52,0-.57-1.04,0-1.02l2.88.07,2.68-.07c2.16-.07,4.15.92,4.15,3.13,0,1.32-.65,2.96-3.36,3.51v.22c.65.22,1.17.77,1.54,1.24.94,1.02,2.04,3.13,2.44,3.75.07.15.25.2.32.2h.84c.45,0,.6.99,0,.99h-1.54c-.45,0-.67-.1-.87-.5-1.17-2.34-2.88-5.67-5.02-5.67h-1.19Zm0-.94h1.89c2.76,0,3.56-1.09,3.56-2.41,0-1.64-.94-2.51-2.98-2.51h-2.46v4.92Z"/>
  </g>
  <g id="numbers" class="solid">
    <path d="m119.09,61.88c0-.16.09-.21.22-.21h1.71c.17,0,.3-.02.43-.05.21-.04.24.68-.28.68h-1.46l-.05,1.12.09.06c.11-.06.32-.1.59-.1.91,0,1.61.5,1.61,1.49s-.9,1.77-2.19,1.77c-.35,0-.84-.07-1.02-.19-.15-.1.05-.65.2-.57.15.08.48.16.9.16.63,0,1.16-.45,1.16-1.15,0-.64-.39-.95-.82-.95-.38,0-.64.16-.76.25-.08.06-.44-.19-.43-.28l.09-2.01Z"/>
    <path d="m125.26,63.89c.48.15.85.56.85,1.13,0,.97-.84,1.62-1.91,1.62-.47,0-.95-.11-1.32-.38-.15-.11.06-.59.2-.5.31.2.62.29,1.05.29.62,0,1.04-.32,1.04-1.02,0-.62-.41-.91-.91-.91h-.3c-.14,0-.12-.48,0-.48h.32c.28,0,.67-.16.67-.82,0-.48-.32-.68-.64-.68-.3,0-.46.14-.48.38-.02.28-.21.35-.41.35-.21,0-.33-.14-.33-.32,0-.31.51-.91,1.35-.91.73,0,1.46.35,1.46,1.15,0,.44-.32.82-.64.98v.12Z"/>
    <path d="m133.34,64.48c-.26.23-.5.3-.75.3-.67,0-1.47-.47-1.47-1.5s.89-1.65,1.59-1.65c.98,0,1.7.7,1.7,2.14,0,1.27-.64,2.2-1.52,2.65-.27.14-.9.27-1.3.28-.1,0-.12-.5,0-.52.36-.06.77-.12,1.02-.26.48-.26.75-.79.83-1.4l-.1-.06Zm.08-1.33c0-.39-.17-.95-.72-.95-.39,0-.68.4-.68,1.03,0,.77.33,1,.73,1,.23,0,.42-.12.58-.32.08-.23.09-.6.09-.76Z"/>
    <path d="m136.8,66.64c-.9,0-1.69-.97-1.69-2.19,0-1.61.66-2.81,1.82-2.81.88,0,1.76.82,1.76,2.47s-.87,2.53-1.89,2.53Zm.1-4.45c-.58,0-.88.8-.88,2.03s.37,1.87.84,1.87.91-.64.91-1.93-.31-1.96-.86-1.96Z"/>
    <path d="m144.88,66.49c-.04.08-.25.15-.5.15-.21,0-.54-.04-.48-.17.53-1.39,1.31-2.87,2.04-4.1l-.05-.1c-.55,0-1.33.04-1.81.07-.33.02-.32-.68-.07-.68.13,0,.68.02.92.02h1.56c.23,0,.3.37.21.53-.71,1.31-1.42,2.79-1.81,4.29Z"/>
    <path d="m148.52,64.08v-.11c-.37-.26-.6-.53-.6-1.08,0-.66.57-1.25,1.52-1.25.67,0,1.33.36,1.33,1.15,0,.56-.3.91-.66,1.13v.1c.53.25.85.59.85,1.25,0,.82-.75,1.36-1.62,1.36-.94,0-1.62-.55-1.62-1.31,0-.64.36-1,.8-1.25Zm.8,2.01c.44,0,.84-.27.84-.75s-.48-.77-1.07-1.01c-.4.19-.66.53-.66.92,0,.57.43.84.9.84Zm.17-2.4c.15-.07.62-.4.62-.89,0-.43-.33-.64-.71-.64-.48,0-.79.3-.79.66s.36.67.88.87Z"/>
    <path d="m158.4,63.89c.48.15.85.56.85,1.13,0,.97-.84,1.62-1.91,1.62-.47,0-.95-.11-1.32-.38-.15-.11.06-.59.2-.5.31.2.61.29,1.05.29.61,0,1.04-.32,1.04-1.02,0-.62-.41-.91-.91-.91h-.3c-.14,0-.12-.48,0-.48h.32c.28,0,.67-.16.67-.82,0-.48-.32-.68-.64-.68-.3,0-.46.14-.48.38-.02.28-.21.35-.42.35-.21,0-.33-.14-.33-.32,0-.31.51-.91,1.36-.91.73,0,1.46.35,1.46,1.15,0,.44-.32.82-.64.98v.12Z"/>
  </g>
</svg>
